<?xml version="1.0" encoding="utf-8"?>
<!-- Generator: Adobe Illustrator 16.0.0, SVG Export Plug-In . SVG Version: 6.00 Build 0)  -->
<!DOCTYPE svg PUBLIC "-//W3C//DTD SVG 1.1//EN" "http://www.w3.org/Graphics/SVG/1.1/DTD/svg11.dtd">
<svg version="1.1" id="Layer_1" xmlns="http://www.w3.org/2000/svg" xmlns:xlink="http://www.w3.org/1999/xlink" x="0px" y="0px"
	 width="16.104px" height="15.977px" viewBox="0 0 16.104 15.977" enable-background="new 0 0 16.104 15.977" xml:space="preserve">
<g>
	<path fill="#FFF" d="M14.454,11.161v-0.178c0-0.003-0.003-0.004-0.003-0.007c-0.003-0.948-0.771-1.713-1.719-1.713
		c-0.95,0-1.721,0.77-1.721,1.721h0.006c0,0.009-0.006,0.018-0.006,0.027v0.918h-0.396c-0.266,0-0.48,0.217-0.482,0.481v3.147
		c0.027,0.213,0.197,0.382,0.411,0.413h4.401c0.19-0.038,0.34-0.188,0.378-0.381v-3.228c-0.024-0.237-0.22-0.423-0.459-0.434h-3.274
		v-0.918c0-0.01-0.004-0.019-0.004-0.027h0.004c0-0.631,0.512-1.141,1.142-1.141c0.631,0,1.141,0.51,1.141,1.141v0.177
		C13.873,11.563,14.458,11.563,14.454,11.161z M14.56,12.51c0.097,0,0.175,0.072,0.184,0.168v2.549
		c-0.006,0.086-0.068,0.15-0.15,0.164h-3.701c-0.093-0.003-0.165-0.072-0.177-0.161v-2.555c0.009-0.086,0.072-0.153,0.158-0.165
		H14.56z"/>
	<path fill="#FFF" d="M0.763,14.588c-0.014,0.215,0.157,0.398,0.374,0.398c0.195,0,0.361-0.152,0.374-0.349
		C1.689,11.595,4.214,9.184,7.3,9.184c0.771,0,1.508,0.151,2.183,0.426c0.556,0.346,0.948-0.159,0.601-0.557
		c-0.276-0.13-0.564-0.241-0.859-0.332c1.549-0.724,2.625-2.299,2.625-4.122c0-2.513-2.036-4.549-4.549-4.549
		c-2.511,0-4.548,2.036-4.548,4.549c0,1.823,1.076,3.398,2.627,4.122C2.82,9.507,0.93,11.815,0.763,14.588z M3.501,4.599
		c0-2.1,1.701-3.801,3.799-3.801c2.099,0,3.801,1.701,3.801,3.801c0,2.099-1.702,3.8-3.801,3.8C5.202,8.399,3.501,6.698,3.501,4.599
		z"/>
	<path fill="#FFF" d="M12.897,14.545v-0.935c-0.002-0.162-0.375-0.162-0.374,0v0.935C12.522,14.697,12.896,14.697,12.897,14.545z
		"/>
</g>
</svg>
